#N canvas 88 124 1567 799 10;
#X obj 250 116 hradio 15 1 0 10 empty empty empty 0 -8 0 10 -262144
-1 -1 0;
#X msg 250 151 open \$1;
#X obj 221 116 tgl 15 0 empty empty empty 17 7 0 10 -4034 -1 -1 0 1
;
#X floatatom 259 204 5 0 0 0 - - -;
#X floatatom 20 978 5 0 0 0 - - -;
#X floatatom 101 959 5 0 0 0 - - -;
#X floatatom 156 856 5 0 0 0 - - -;
#X floatatom 263 850 5 0 0 0 - - -;
#X floatatom 316 541 5 0 0 0 - - -;
#X floatatom 331 496 5 0 0 0 - - -;
#X floatatom 348 398 5 0 0 0 - - -;
#X floatatom 658 381 5 0 0 0 - - -;
#X obj 197 211 print;
#X obj 658 402 change;
#X floatatom 324 136 5 0 0 0 - - -;
#X obj 334 521 hsl 255 15 0 255 0 0 empty empty empty -2 -8 0 10 -262144
-1 -1 0 1;
#X obj 316 573 vsl 15 255 0 255 0 0 empty empty empty 0 -9 0 10 -262144
-1 -1 0 1;
#X obj 348 427 knob 50 50 0 8 0 0 empty empty empty 0 -8 0 8 -4034
-1 -1 0 1;
#X obj 143 113 tgl 25 0 empty empty DSP 3 12 1 9 -24198 -1 -1 0 1;
#X msg 143 145 \; pd dsp \$1;
#X obj 224 719 vsl 15 255 0 255 0 0 empty empty empty 0 -9 0 10 -262144
-1 -1 0 1;
#X obj 266 872 hsl 255 15 0 255 0 0 empty empty empty -2 -8 0 10 -262144
-1 -1 0 1;
#X obj 104 983 hsl 255 15 0 255 0 0 empty empty empty -2 -8 0 10 -262144
-1 -1 0 1;
#X obj 343 691 osc~ 70;
#X obj 395 692 osc~ 80;
#X obj 410 666 dac~ 1 2;
#X obj 294 891 osc~ 55;
#X obj 347 892 osc~ 65;
#X obj 387 381 osc~ 75;
#X obj 450 383 osc~ 85;
#X obj 410 642 equal_power_pan~;
#X obj 344 792 dac~ 1 2;
#X obj 343 769 equal_power_pan~;
#X obj 548 910 dac~ 1 2;
#X obj 547 887 equal_power_pan~;
#X obj 409 988 dac~ 1 2;
#X obj 408 965 equal_power_pan~;
#X obj 447 502 dac~ 1 2;
#X obj 446 476 equal_power_pan~;
#X obj 103 1071 equal_power_pan~;
#X obj 152 1004 osc~ 47;
#X obj 102 1003 osc~ 45;
#X obj 416 540 osc~ 56;
#X obj 500 383 osc~ 77.5;
#X obj 567 382 osc~ 82.5;
#X obj 471 540 osc~ 54;
#X obj 522 540 osc~ 53;
#X obj 488 812 osc~ 92;
#X obj 546 812 osc~ 93;
#X obj 611 814 osc~ 94;
#X obj 423 810 osc~ 91;
#X obj 665 815 osc~ 95;
#X obj 721 815 osc~ 96;
#X obj 448 692 osc~ 72.5;
#X obj 515 694 osc~ 75;
#X obj 575 693 osc~ 77.5;
#X obj 398 891 osc~ 57.5;
#X obj 465 891 osc~ 60;
#X obj 206 1003 osc~ 48;
#X obj 256 1004 osc~ 49;
#X obj 308 1004 osc~ 50;
#X obj 358 1005 osc~ 51;
#X obj 352 541 osc~ 52.5;
#X obj 409 942 *~ 0.09;
#X obj 102 1047 *~ 0.07;
#X obj 343 743 *~ 0.07;
#X obj 546 863 *~ 0.05;
#X obj 411 619 *~ 0.13;
#X obj 104 1094 dac~ 1 2;
#N canvas 0 22 806 692 META 1;
#N canvas 876 177 375 255 startup 0;
#X obj 22 24 loadbang;
#X obj 22 48 bng 15 250 50 0 empty empty empty 0 -6 0 8 -262144 -1
-1;
#X obj 22 67 f \$0;
#X text 35 195 This subpatch loads initial;
#X text 31 219 values in number boxes.;
#X msg 22 91 \; \$1-pole 80;
#X connect 0 0 1 0;
#X connect 1 0 2 0;
#X connect 2 0 5 0;
#X restore 115 236 pd startup;
#N canvas 0 22 660 424 chord 0;
#X obj 87 97 -~ 0.5;
#X obj 87 146 clip~ -0.5 0.5;
#X obj 87 169 cos~;
#X obj 91 252 hip~ 5;
#X obj 91 315 outlet~;
#X obj 221 97 -~ 0.5;
#X obj 221 146 clip~ -0.5 0.5;
#X obj 221 169 cos~;
#X obj 356 100 -~ 0.5;
#X obj 356 149 clip~ -0.5 0.5;
#X obj 356 172 cos~;
#X obj 491 100 -~ 0.5;
#X obj 491 149 clip~ -0.5 0.5;
#X obj 491 172 cos~;
#X text 147 32 test sound for phaser;
#X obj 221 122 *~ 0.1;
#X obj 87 122 *~ 0.17;
#X obj 207 266 -~ 0.5;
#X obj 207 315 clip~ -0.5 0.5;
#X obj 207 338 cos~;
#X obj 341 266 -~ 0.5;
#X obj 341 315 clip~ -0.5 0.5;
#X obj 341 338 cos~;
#X obj 476 269 -~ 0.5;
#X obj 476 318 clip~ -0.5 0.5;
#X obj 476 341 cos~;
#X obj 611 269 -~ 0.5;
#X obj 611 318 clip~ -0.5 0.5;
#X obj 611 341 cos~;
#X obj 91 285 *~ 0.75;
#X obj 207 243 phasor~ 78;
#X obj 341 243 phasor~ 88;
#X obj 476 246 phasor~ 98;
#X obj 611 246 phasor~ 68;
#X obj 611 294 *~ 0.3;
#X obj 476 294 *~ 0.3;
#X obj 341 291 *~ 0.3;
#X obj 207 291 *~ 0.5;
#X obj 87 74 phasor~ 178;
#X obj 221 74 phasor~ 188;
#X obj 356 77 phasor~ 198;
#X obj 491 77 phasor~ 168;
#X obj 491 125 *~ 0.19;
#X obj 356 125 *~ 0.19;
#X connect 0 0 16 0;
#X connect 1 0 2 0;
#X connect 2 0 3 0;
#X connect 3 0 29 0;
#X connect 5 0 15 0;
#X connect 6 0 7 0;
#X connect 7 0 3 0;
#X connect 8 0 43 0;
#X connect 9 0 10 0;
#X connect 10 0 3 0;
#X connect 11 0 42 0;
#X connect 12 0 13 0;
#X connect 13 0 3 0;
#X connect 15 0 6 0;
#X connect 16 0 1 0;
#X connect 17 0 37 0;
#X connect 18 0 19 0;
#X connect 19 0 3 0;
#X connect 20 0 36 0;
#X connect 21 0 22 0;
#X connect 22 0 3 0;
#X connect 23 0 35 0;
#X connect 24 0 25 0;
#X connect 25 0 3 0;
#X connect 26 0 34 0;
#X connect 27 0 28 0;
#X connect 28 0 3 0;
#X connect 29 0 4 0;
#X connect 30 0 17 0;
#X connect 31 0 20 0;
#X connect 32 0 23 0;
#X connect 33 0 26 0;
#X connect 34 0 27 0;
#X connect 35 0 24 0;
#X connect 36 0 21 0;
#X connect 37 0 18 0;
#X connect 38 0 0 0;
#X connect 39 0 5 0;
#X connect 40 0 8 0;
#X connect 41 0 11 0;
#X connect 42 0 12 0;
#X connect 43 0 9 0;
#X restore 26 10 pd chord;
#X obj 25 273 output~;
#X obj 48 64 rpole~;
#X obj 48 39 rzero_rev~;
#X obj 48 113 rpole~;
#X obj 48 88 rzero_rev~;
#X obj 48 161 rpole~;
#X obj 48 136 rzero_rev~;
#X obj 48 210 rpole~;
#X obj 48 185 rzero_rev~;
#X obj 25 240 +~;
#X obj 203 188 expr~ 1 - 0.03 - 0.6*abs($v1-0.5)*abs($v1-0.5);
#X obj 254 241 osc~ 46.572;
#X obj 254 295 +~;
#X obj 351 293 +~;
#X obj 254 605 output~;
#X obj 255 332 +~;
#X obj 255 359 +~;
#X obj 255 384 +~;
#X obj 255 411 +~;
#X obj 254 433 +~;
#X obj 254 460 +~;
#X obj 254 485 +~;
#X obj 254 512 +~;
#X obj 400 344 +~;
#X obj 495 356 +~;
#X obj 408 440 +~;
#X obj 503 452 +~;
#X obj 414 529 +~;
#X obj 509 541 +~;
#X obj 448 618 +~;
#X obj 543 630 +~;
#X obj 255 536 +~;
#X obj 269 264 osc~ 47;
#X obj 350 240 osc~ 60.544;
#X obj 367 263 osc~ 61;
#X obj 400 290 osc~ 78.708;
#X obj 415 313 osc~ 79;
#X obj 494 303 osc~ 102.321;
#X obj 511 326 osc~ 103;
#X obj 408 386 osc~ 133.017;
#X obj 423 409 osc~ 134;
#X obj 502 399 osc~ 172.922;
#X obj 519 422 osc~ 173;
#X obj 414 475 osc~ 224.798;
#X obj 429 498 osc~ 225;
#X obj 508 488 osc~ 292.238;
#X obj 525 511 osc~ 293;
#X obj 448 564 osc~ 379.91;
#X obj 463 587 osc~ 380;
#X obj 542 577 osc~ 493.883;
#X obj 559 600 osc~ 494;
#X obj 203 156 phasor~ 0.75;
#X text 357 70 Miguel Oliveros \, Madrid 2015;
#X connect 1 0 4 0;
#X connect 1 0 11 0;
#X connect 3 0 6 0;
#X connect 4 0 3 0;
#X connect 5 0 8 0;
#X connect 6 0 5 0;
#X connect 7 0 10 0;
#X connect 8 0 7 0;
#X connect 9 0 11 1;
#X connect 10 0 9 0;
#X connect 11 0 2 0;
#X connect 11 0 2 1;
#X connect 12 0 4 1;
#X connect 12 0 3 1;
#X connect 12 0 6 1;
#X connect 12 0 5 1;
#X connect 12 0 8 1;
#X connect 12 0 7 1;
#X connect 12 0 10 1;
#X connect 12 0 9 1;
#X connect 13 0 14 0;
#X connect 14 0 17 0;
#X connect 15 0 17 1;
#X connect 17 0 18 0;
#X connect 18 0 19 0;
#X connect 19 0 20 0;
#X connect 20 0 21 0;
#X connect 21 0 22 0;
#X connect 22 0 23 0;
#X connect 23 0 24 0;
#X connect 24 0 33 0;
#X connect 25 0 18 1;
#X connect 26 0 19 1;
#X connect 27 0 20 1;
#X connect 28 0 21 1;
#X connect 29 0 22 1;
#X connect 30 0 23 1;
#X connect 31 0 24 1;
#X connect 32 0 33 1;
#X connect 33 0 16 0;
#X connect 33 0 16 1;
#X connect 34 0 14 1;
#X connect 35 0 15 0;
#X connect 36 0 15 1;
#X connect 37 0 25 0;
#X connect 38 0 25 1;
#X connect 39 0 26 0;
#X connect 40 0 26 1;
#X connect 41 0 27 0;
#X connect 42 0 27 1;
#X connect 43 0 28 0;
#X connect 44 0 28 1;
#X connect 45 0 29 0;
#X connect 46 0 29 1;
#X connect 47 0 30 0;
#X connect 48 0 30 1;
#X connect 49 0 31 0;
#X connect 50 0 31 1;
#X connect 51 0 32 0;
#X connect 52 0 32 1;
#X connect 53 0 12 0;
#X restore 80 116 pd META;
#X obj 446 454 *~ 0.1;
#X obj 447 433 phasor~ 0.25;
#X obj 411 597 phasor~ 0.25;
#X obj 343 723 phasor~ 0.5;
#X obj 545 841 phasor~ 0.25;
#X obj 408 920 phasor~ 0.3;
#X obj 102 1024 phasor~ 0.5;
#X obj 658 448 bng 15 250 50 0 empty empty empty 17 7 0 10 -262144
-1 -1;
#X obj 683 448 bng 15 250 50 0 empty empty empty 17 7 0 10 -262144
-1 -1;
#X obj 658 425 sel 0 128 255;
#X obj 708 447 bng 15 250 50 0 empty empty empty 17 7 0 10 -262144
-1 -1;
#X obj 733 448 bng 15 250 50 0 empty empty empty 17 7 0 10 -262144
-1 -1;
#X obj 20 1000 change;
#X obj 20 1022 sel 1;
#X obj 20 1044 bng 15 250 50 0 empty empty empty 17 7 0 10 -262144
-1 -1;
#X obj 47 1044 bng 15 250 50 0 empty empty empty 17 7 0 10 -262144
-1 -1;
#X floatatom 844 416 5 0 0 0 - - -;
#X obj 844 437 change;
#X obj 844 483 bng 15 250 50 0 empty empty empty 17 7 0 10 -262144
-1 -1;
#X obj 869 482 bng 15 250 50 0 empty empty empty 17 7 0 10 -262144
-1 -1;
#X obj 844 460 sel 0 128 255;
#X obj 894 482 bng 15 250 50 0 empty empty empty 17 7 0 10 -262144
-1 -1;
#X obj 919 483 bng 15 250 50 0 empty empty empty 17 7 0 10 -262144
-1 -1;
#X floatatom 992 415 5 0 0 0 - - -;
#X obj 992 436 change;
#X obj 992 482 bng 15 250 50 0 empty empty empty 17 7 0 10 -262144
-1 -1;
#X obj 1017 482 bng 15 250 50 0 empty empty empty 17 7 0 10 -262144
-1 -1;
#X obj 992 459 sel 0 128 255;
#X obj 1042 481 bng 15 250 50 0 empty empty empty 17 7 0 10 -262144
-1 -1;
#X obj 1067 482 bng 15 250 50 0 empty empty empty 17 7 0 10 -262144
-1 -1;
#X floatatom 1132 385 5 0 0 0 - - -;
#X obj 1132 406 change;
#X obj 1132 452 bng 15 250 50 0 empty empty empty 17 7 0 10 -262144
-1 -1;
#X obj 1157 452 bng 15 250 50 0 empty empty empty 17 7 0 10 -262144
-1 -1;
#X obj 1132 429 sel 0 128 255;
#X obj 1182 451 bng 15 250 50 0 empty empty empty 17 7 0 10 -262144
-1 -1;
#X obj 1207 452 bng 15 250 50 0 empty empty empty 17 7 0 10 -262144
-1 -1;
#X floatatom 1253 386 5 0 0 0 - - -;
#X obj 1253 407 change;
#X obj 1253 453 bng 15 250 50 0 empty empty empty 17 7 0 10 -262144
-1 -1;
#X obj 1278 453 bng 15 250 50 0 empty empty empty 17 7 0 10 -262144
-1 -1;
#X obj 1253 430 sel 0 128 255;
#X obj 1303 452 bng 15 250 50 0 empty empty empty 17 7 0 10 -262144
-1 -1;
#X obj 1328 453 bng 15 250 50 0 empty empty empty 17 7 0 10 -262144
-1 -1;
#X floatatom 1373 381 5 0 0 0 - - -;
#X obj 1373 402 change;
#X obj 1373 445 bng 15 250 50 0 empty empty empty 17 7 0 10 -262144
-1 -1;
#X obj 1529 472 bng 15 250 50 0 empty empty empty 17 7 0 10 -262144
-1 -1;
#X obj 1411 446 bng 15 250 50 0 empty empty empty 17 7 0 10 -262144
-1 -1;
#X obj 1373 425 sel 0 7 15;
#X obj 1430 446 bng 15 250 50 0 empty empty empty 17 7 0 10 -262144
-1 -1;
#X obj 250 232 route 0 1 2 3 4 5 6 7 8 9 10 11 12 13 14 15 16;
#X floatatom 1713 375 5 0 0 0 - - -;
#X floatatom 1560 379 5 0 0 0 - - -;
#X obj 1037 839 readsf~ 10;
#X obj 1038 870 dac~ 1 2;
#X floatatom 1013 597 5 0 0 0 - - -;
#X msg 1025 694 open a00.wav \, 1;
#X msg 1132 694 open a21.wav \, 1;
#X msg 1231 691 open a22.wav \, 1;
#X msg 1033 717 open a23.wav \, 1;
#X msg 1140 717 open a24.wav \, 1;
#X msg 1239 714 open a25.wav \, 1;
#X msg 1043 740 open a26.wav \, 1;
#X msg 1150 740 open a27.wav \, 1;
#X msg 1249 737 open a28.wav \, 1;
#X msg 1122 766 open a29.wav \, 1;
#X obj 1013 571 random 11;
#X obj 1036 618 sel 0 1 2 3 4 5 6 7 8 9 10;
#X msg 1238 765 open a30.wav \, 1;
#X obj 674 777 dac~ 1 2;
#X floatatom 658 551 5 0 0 0 - - -;
#X msg 670 634 open a11.wav \, 1;
#X msg 777 634 open a12.wav \, 1;
#X msg 876 631 open a13.wav \, 1;
#X msg 678 657 open a14.wav \, 1;
#X msg 785 657 open a15.wav \, 1;
#X msg 884 654 open a16.wav \, 1;
#X msg 688 680 open a17.wav \, 1;
#X msg 795 680 open a18.wav \, 1;
#X msg 894 677 open a19.wav \, 1;
#X msg 767 706 open a20.wav \, 1;
#X obj 693 1034 dac~ 1 2;
#X floatatom 863 816 5 0 0 0 - - -;
#X msg 790 967 open a10.wav \, 1;
#X msg 693 895 open a01.wav \, 1;
#X msg 800 895 open a02.wav \, 1;
#X msg 899 892 open a03.wav \, 1;
#X msg 701 918 open a04.wav \, 1;
#X msg 808 918 open a05.wav \, 1;
#X msg 907 915 open a06.wav \, 1;
#X msg 917 938 open a09.wav \, 1;
#X msg 818 941 open a08.wav \, 1;
#X msg 711 941 open a07.wav \, 1;
#X msg 1373 471 stop;
#X obj 1217 1074 dac~ 1 2;
#X floatatom 1196 870 5 0 0 0 - - -;
#X obj 863 771 metro 100000;
#X obj 1013 548 metro 100000;
#X obj 658 502 metro 100000;
#X obj 1376 820 dac~ 1 2;
#X floatatom 1360 580 5 0 0 0 - - -;
#X msg 1208 967 open air.wav \, 1;
#X msg 1315 967 open air2.wav \, 1;
#X msg 1430 964 open air3.wav \, 1;
#X msg 1210 990 open air3D.wav \, 1;
#X msg 1323 990 open alg[delay].wav \, 1;
#X msg 1474 991 open alg[Si].wav \, 1;
#X msg 1226 1013 open Botana.wav \, 1;
#X obj 1196 821 metro 1.8e+06;
#X msg 1372 677 open f1.wav \, 1;
#X msg 1479 677 open f02.wav \, 1;
#X msg 1578 674 open f03.wav \, 1;
#X msg 1380 700 open f04.wav \, 1;
#X msg 1487 700 open S.wav \, 1;
#X msg 1586 697 open S1.wav \, 1;
#X msg 1390 723 open S2.wav \, 1;
#X msg 1497 723 open S3.wav \, 1;
#X msg 1596 720 open síntesis.wav \, 1;
#X obj 1360 531 metro 1.1e+06;
#X msg 1560 424 open N1.wav \, 1;
#X msg 1713 421 open N2.wav \, 1;
#X msg 1529 493 open N5.wav \, 1;
#X msg 911 969 open N6.wav \, 1;
#X msg 1367 1016 open N8.wav \, 1;
#X msg 1516 748 open N9.wav \, 1;
#X msg 873 705 open N10.wav \, 1;
#X obj 1560 402 bng 15 250 50 0 empty empty empty 17 7 0 10 -262144
-1 -1;
#X obj 1713 398 bng 15 250 50 0 empty empty empty 17 7 0 10 -262144
-1 -1;
#X obj 1680 491 dac~ 1 2;
#X obj 1679 460 readsf~;
#X obj 1530 549 dac~ 1 2;
#X obj 1529 518 readsf~;
#X obj 863 793 random 11;
#X obj 693 1009 readsf~ 11;
#X obj 863 840 sel 0 1 2 3 4 5 6 7 8 9 10;
#X obj 673 746 readsf~ 11;
#X msg 1621 750 open N12.wav \, 1;
#X obj 658 577 sel 0 1 2 3 4 5 6 7 8 9 10;
#X obj 658 525 random 11;
#X obj 1375 789 readsf~ 11;
#X obj 1360 554 random 11;
#X obj 1383 601 sel 0 1 2 3 4 5 6 7 8 9 10;
#X msg 1489 416 stop;
#X obj 1196 844 random 8;
#X obj 1216 1045 readsf~ 8;
#X obj 1195 896 sel 0 1 2 3 4 5 6 7;
#X text 452 107 Hidin Modulator \, Miguel Oliveros \, Madrid 2015;
#X obj 250 179 hidin;
#X connect 0 0 1 0;
#X connect 0 0 14 0;
#X connect 4 0 82 0;
#X connect 5 0 22 0;
#X connect 6 0 20 0;
#X connect 7 0 21 0;
#X connect 8 0 16 0;
#X connect 9 0 15 0;
#X connect 10 0 17 0;
#X connect 11 0 13 0;
#X connect 13 0 79 0;
#X connect 15 0 30 1;
#X connect 16 0 32 1;
#X connect 17 0 38 1;
#X connect 18 0 19 0;
#X connect 20 0 36 1;
#X connect 21 0 34 1;
#X connect 22 0 39 1;
#X connect 23 0 73 0;
#X connect 24 0 73 0;
#X connect 26 0 75 0;
#X connect 27 0 75 0;
#X connect 28 0 71 0;
#X connect 29 0 71 0;
#X connect 30 0 25 0;
#X connect 30 1 25 1;
#X connect 32 0 31 0;
#X connect 32 1 31 1;
#X connect 34 0 33 0;
#X connect 34 1 33 1;
#X connect 36 0 35 0;
#X connect 36 1 35 1;
#X connect 38 0 37 0;
#X connect 38 1 37 1;
#X connect 39 0 68 0;
#X connect 39 1 68 1;
#X connect 40 0 76 0;
#X connect 41 0 76 0;
#X connect 42 0 72 0;
#X connect 43 0 71 0;
#X connect 44 0 71 0;
#X connect 45 0 72 0;
#X connect 46 0 72 0;
#X connect 47 0 74 0;
#X connect 48 0 74 0;
#X connect 49 0 74 0;
#X connect 50 0 74 0;
#X connect 51 0 74 0;
#X connect 52 0 74 0;
#X connect 53 0 73 0;
#X connect 54 0 73 0;
#X connect 55 0 73 0;
#X connect 56 0 75 0;
#X connect 57 0 75 0;
#X connect 58 0 76 0;
#X connect 59 0 76 0;
#X connect 60 0 76 0;
#X connect 61 0 76 0;
#X connect 62 0 72 0;
#X connect 63 0 36 0;
#X connect 64 0 39 0;
#X connect 65 0 32 0;
#X connect 66 0 34 0;
#X connect 67 0 30 0;
#X connect 70 0 38 0;
#X connect 71 0 70 0;
#X connect 72 0 67 0;
#X connect 73 0 65 0;
#X connect 74 0 66 0;
#X connect 75 0 63 0;
#X connect 76 0 64 0;
#X connect 77 0 169 0;
#X connect 78 0 169 0;
#X connect 79 0 77 0;
#X connect 79 1 78 0;
#X connect 79 2 80 0;
#X connect 79 3 81 0;
#X connect 80 0 169 0;
#X connect 81 0 169 0;
#X connect 82 0 83 0;
#X connect 83 0 84 0;
#X connect 83 1 85 0;
#X connect 86 0 87 0;
#X connect 87 0 90 0;
#X connect 88 0 167 0;
#X connect 89 0 167 0;
#X connect 90 0 88 0;
#X connect 90 1 89 0;
#X connect 90 2 91 0;
#X connect 90 3 92 0;
#X connect 91 0 167 0;
#X connect 92 0 167 0;
#X connect 93 0 94 0;
#X connect 94 0 97 0;
#X connect 95 0 168 0;
#X connect 96 0 168 0;
#X connect 97 0 95 0;
#X connect 97 1 96 0;
#X connect 97 2 98 0;
#X connect 97 3 99 0;
#X connect 98 0 168 0;
#X connect 99 0 168 0;
#X connect 100 0 101 0;
#X connect 101 0 104 0;
#X connect 102 0 179 0;
#X connect 103 0 179 0;
#X connect 104 0 102 0;
#X connect 104 1 103 0;
#X connect 104 2 105 0;
#X connect 104 3 106 0;
#X connect 105 0 179 0;
#X connect 106 0 179 0;
#X connect 107 0 108 0;
#X connect 108 0 111 0;
#X connect 109 0 189 0;
#X connect 110 0 189 0;
#X connect 110 0 213 0;
#X connect 111 0 109 0;
#X connect 111 1 110 0;
#X connect 111 2 112 0;
#X connect 111 3 113 0;
#X connect 112 0 189 0;
#X connect 113 0 189 0;
#X connect 114 0 115 0;
#X connect 115 0 119 0;
#X connect 116 0 164 0;
#X connect 117 0 192 0;
#X connect 118 0 164 0;
#X connect 119 0 116 0;
#X connect 119 1 117 0;
#X connect 119 2 118 0;
#X connect 119 3 120 0;
#X connect 120 0 164 0;
#X connect 121 0 4 0;
#X connect 121 1 5 0;
#X connect 121 1 11 0;
#X connect 121 2 6 0;
#X connect 121 2 86 0;
#X connect 121 3 7 0;
#X connect 121 3 93 0;
#X connect 121 4 8 0;
#X connect 121 4 100 0;
#X connect 121 5 9 0;
#X connect 121 5 107 0;
#X connect 121 6 10 0;
#X connect 121 6 114 0;
#X connect 121 15 123 0;
#X connect 121 16 122 0;
#X connect 122 0 198 0;
#X connect 123 0 197 0;
#X connect 124 0 125 0;
#X connect 124 0 125 1;
#X connect 124 10 125 1;
#X connect 126 0 138 0;
#X connect 127 0 124 0;
#X connect 128 0 124 0;
#X connect 129 0 124 0;
#X connect 130 0 124 0;
#X connect 131 0 124 0;
#X connect 132 0 124 0;
#X connect 133 0 124 0;
#X connect 134 0 124 0;
#X connect 135 0 124 0;
#X connect 136 0 124 0;
#X connect 137 0 126 0;
#X connect 138 0 127 0;
#X connect 138 1 128 0;
#X connect 138 2 129 0;
#X connect 138 3 130 0;
#X connect 138 4 131 0;
#X connect 138 5 132 0;
#X connect 138 6 133 0;
#X connect 138 7 134 0;
#X connect 138 8 135 0;
#X connect 138 9 136 0;
#X connect 138 10 139 0;
#X connect 139 0 124 0;
#X connect 141 0 208 0;
#X connect 142 0 206 0;
#X connect 143 0 206 0;
#X connect 144 0 206 0;
#X connect 145 0 206 0;
#X connect 146 0 206 0;
#X connect 147 0 206 0;
#X connect 148 0 206 0;
#X connect 149 0 206 0;
#X connect 150 0 206 0;
#X connect 151 0 206 0;
#X connect 153 0 205 0;
#X connect 154 0 204 0;
#X connect 155 0 204 0;
#X connect 156 0 204 0;
#X connect 157 0 204 0;
#X connect 158 0 204 0;
#X connect 159 0 204 0;
#X connect 160 0 204 0;
#X connect 161 0 204 0;
#X connect 162 0 204 0;
#X connect 163 0 204 0;
#X connect 164 0 124 0;
#X connect 164 0 204 0;
#X connect 164 0 206 0;
#X connect 164 0 210 0;
#X connect 164 0 215 0;
#X connect 166 0 216 0;
#X connect 167 0 203 0;
#X connect 168 0 137 0;
#X connect 169 0 209 0;
#X connect 171 0 212 0;
#X connect 172 0 215 0;
#X connect 173 0 215 0;
#X connect 174 0 215 0;
#X connect 175 0 215 0;
#X connect 176 0 215 0;
#X connect 177 0 215 0;
#X connect 178 0 215 0;
#X connect 179 0 214 0;
#X connect 180 0 210 0;
#X connect 181 0 210 0;
#X connect 182 0 210 0;
#X connect 183 0 210 0;
#X connect 184 0 210 0;
#X connect 185 0 210 0;
#X connect 186 0 210 0;
#X connect 187 0 210 0;
#X connect 188 0 210 0;
#X connect 189 0 211 0;
#X connect 190 0 200 0;
#X connect 191 0 200 0;
#X connect 192 0 202 0;
#X connect 193 0 204 0;
#X connect 194 0 215 0;
#X connect 195 0 210 0;
#X connect 196 0 206 0;
#X connect 197 0 190 0;
#X connect 198 0 191 0;
#X connect 200 0 199 0;
#X connect 200 0 199 1;
#X connect 200 1 199 1;
#X connect 202 0 201 0;
#X connect 202 0 201 1;
#X connect 202 1 201 1;
#X connect 203 0 153 0;
#X connect 204 0 152 0;
#X connect 204 0 152 1;
#X connect 204 10 152 1;
#X connect 205 0 155 0;
#X connect 205 1 156 0;
#X connect 205 2 157 0;
#X connect 205 3 158 0;
#X connect 205 4 159 0;
#X connect 205 5 160 0;
#X connect 205 6 163 0;
#X connect 205 7 162 0;
#X connect 205 8 161 0;
#X connect 205 9 154 0;
#X connect 205 10 193 0;
#X connect 206 0 140 0;
#X connect 206 0 140 1;
#X connect 207 0 210 0;
#X connect 208 0 142 0;
#X connect 208 1 143 0;
#X connect 208 2 144 0;
#X connect 208 3 145 0;
#X connect 208 4 146 0;
#X connect 208 5 147 0;
#X connect 208 6 148 0;
#X connect 208 7 149 0;
#X connect 208 8 150 0;
#X connect 208 9 151 0;
#X connect 208 10 196 0;
#X connect 209 0 141 0;
#X connect 210 0 170 0;
#X connect 210 0 170 1;
#X connect 210 11 170 1;
#X connect 211 0 171 0;
#X connect 212 0 180 0;
#X connect 212 1 181 0;
#X connect 212 2 182 0;
#X connect 212 3 183 0;
#X connect 212 4 184 0;
#X connect 212 5 185 0;
#X connect 212 6 186 0;
#X connect 212 7 187 0;
#X connect 212 8 188 0;
#X connect 212 9 195 0;
#X connect 212 10 207 0;
#X connect 213 0 202 0;
#X connect 213 0 200 0;
#X connect 214 0 166 0;
#X connect 215 0 165 0;
#X connect 215 0 165 1;
#X connect 216 0 172 0;
#X connect 216 1 173 0;
#X connect 216 2 174 0;
#X connect 216 3 175 0;
#X connect 216 4 176 0;
#X connect 216 5 177 0;
#X connect 216 6 178 0;
#X connect 216 7 194 0;
